<mxfile host="app.diagrams.net" agent="Mozilla/5.0 (Windows NT 10.0; Win64; x64) AppleWebKit/537.36 (KHTML, like Gecko) Chrome/136.0.0.0 Safari/537.36" version="26.2.14">
  <diagram name="Page-1" id="pBdAeNdlv3EFSrPU6VSE">
    <mxGraphModel grid="1" page="1" gridSize="10" guides="1" tooltips="1" connect="1" arrows="1" fold="1" pageScale="1" pageWidth="827" pageHeight="1169" math="0" shadow="0">
      <root>
        <mxCell id="0" />
        <mxCell id="1" parent="0" />
        <mxCell id="Iel69sSdWUFtCfobF7gG-1" value="" style="rounded=0;whiteSpace=wrap;html=1;" vertex="1" parent="1">
          <mxGeometry x="420" y="-240" width="890" height="1770" as="geometry" />
        </mxCell>
        <mxCell id="Iel69sSdWUFtCfobF7gG-2" value="&lt;font style=&quot;font-size: 36px;&quot;&gt;Student/Parent&lt;/font&gt;" style="shape=umlActor;verticalLabelPosition=bottom;verticalAlign=top;html=1;outlineConnect=0;" vertex="1" parent="1">
          <mxGeometry x="150" y="462" width="90" height="110" as="geometry" />
        </mxCell>
        <mxCell id="Iel69sSdWUFtCfobF7gG-8" value="&lt;font style=&quot;font-size: 24px;&quot;&gt;Register account&lt;/font&gt;" style="ellipse;whiteSpace=wrap;html=1;" vertex="1" parent="1">
          <mxGeometry x="505" y="50" width="155" height="80" as="geometry" />
        </mxCell>
        <mxCell id="Iel69sSdWUFtCfobF7gG-12" value="&lt;font style=&quot;font-size: 24px;&quot;&gt;Login account&lt;/font&gt;" style="ellipse;whiteSpace=wrap;html=1;" vertex="1" parent="1">
          <mxGeometry x="510" y="-80" width="190" height="80" as="geometry" />
        </mxCell>
        <mxCell id="Iel69sSdWUFtCfobF7gG-21" value="&lt;font style=&quot;font-size: 24px;&quot;&gt;Add CNIC&lt;/font&gt;" style="ellipse;whiteSpace=wrap;html=1;" vertex="1" parent="1">
          <mxGeometry x="1039.5" y="265" width="130" height="60" as="geometry" />
        </mxCell>
        <mxCell id="Iel69sSdWUFtCfobF7gG-23" value="&lt;font style=&quot;font-size: 24px;&quot;&gt;Verify Profile&lt;/font&gt;" style="ellipse;whiteSpace=wrap;html=1;" vertex="1" parent="1">
          <mxGeometry x="1075.5" y="830" width="159" height="66" as="geometry" />
        </mxCell>
        <mxCell id="Iel69sSdWUFtCfobF7gG-54" style="edgeStyle=orthogonalEdgeStyle;rounded=0;orthogonalLoop=1;jettySize=auto;html=1;exitX=0.5;exitY=1;exitDx=0;exitDy=0;" edge="1" parent="1" source="Iel69sSdWUFtCfobF7gG-23" target="Iel69sSdWUFtCfobF7gG-23">
          <mxGeometry relative="1" as="geometry" />
        </mxCell>
        <mxCell id="Iel69sSdWUFtCfobF7gG-60" value="&lt;font style=&quot;font-size: 36px;&quot;&gt;System Boundary&lt;/font&gt;" style="text;html=1;align=center;verticalAlign=middle;whiteSpace=wrap;rounded=0;" vertex="1" parent="1">
          <mxGeometry x="835" y="-294" width="60" height="30" as="geometry" />
        </mxCell>
        <mxCell id="Iel69sSdWUFtCfobF7gG-61" value="&lt;font style=&quot;font-size: 36px;&quot;&gt;Actors&amp;nbsp;&lt;/font&gt;" style="text;html=1;align=center;verticalAlign=middle;whiteSpace=wrap;rounded=0;" vertex="1" parent="1">
          <mxGeometry x="302" y="1565" width="60" height="30" as="geometry" />
        </mxCell>
        <mxCell id="Iel69sSdWUFtCfobF7gG-62" value="&lt;font style=&quot;font-size: 36px;&quot;&gt;Actors&amp;nbsp;&lt;/font&gt;" style="text;html=1;align=center;verticalAlign=middle;whiteSpace=wrap;rounded=0;" vertex="1" parent="1">
          <mxGeometry x="1383" y="1570" width="60" height="30" as="geometry" />
        </mxCell>
        <mxCell id="fUnqBwJ3Z1L05RPoQU2X-1" value="&lt;font style=&quot;font-size: 36px;&quot;&gt;Tutor&lt;/font&gt;" style="shape=umlActor;verticalLabelPosition=bottom;verticalAlign=top;html=1;outlineConnect=0;" vertex="1" parent="1">
          <mxGeometry x="1383" y="350" width="90" height="110" as="geometry" />
        </mxCell>
        <mxCell id="fUnqBwJ3Z1L05RPoQU2X-3" value="&lt;font style=&quot;font-size: 36px;&quot;&gt;Admin&lt;/font&gt;" style="shape=umlActor;verticalLabelPosition=bottom;verticalAlign=top;html=1;outlineConnect=0;" vertex="1" parent="1">
          <mxGeometry x="1383" y="690" width="90" height="110" as="geometry" />
        </mxCell>
        <mxCell id="fUnqBwJ3Z1L05RPoQU2X-4" value="&lt;font style=&quot;font-size: 24px;&quot;&gt;Add Bio&lt;/font&gt;" style="ellipse;whiteSpace=wrap;html=1;" vertex="1" parent="1">
          <mxGeometry x="1090" y="-110" width="160.5" height="70" as="geometry" />
        </mxCell>
        <mxCell id="fUnqBwJ3Z1L05RPoQU2X-5" value="&lt;font style=&quot;font-size: 24px;&quot;&gt;Add Location&lt;/font&gt;" style="ellipse;whiteSpace=wrap;html=1;" vertex="1" parent="1">
          <mxGeometry x="1129" y="-14" width="145.25" height="60" as="geometry" />
        </mxCell>
        <mxCell id="fUnqBwJ3Z1L05RPoQU2X-6" value="&lt;font style=&quot;font-size: 24px;&quot;&gt;Add Image&lt;/font&gt;" style="ellipse;whiteSpace=wrap;html=1;" vertex="1" parent="1">
          <mxGeometry x="1100" y="100" width="145.25" height="60" as="geometry" />
        </mxCell>
        <mxCell id="fUnqBwJ3Z1L05RPoQU2X-7" value="&lt;font style=&quot;font-size: 24px;&quot;&gt;Add Qualification&lt;/font&gt;" style="ellipse;whiteSpace=wrap;html=1;" vertex="1" parent="1">
          <mxGeometry x="950" y="356" width="188" height="60" as="geometry" />
        </mxCell>
        <mxCell id="fUnqBwJ3Z1L05RPoQU2X-8" value="&lt;font style=&quot;font-size: 24px;&quot;&gt;Add teaching experience&lt;/font&gt;" style="ellipse;whiteSpace=wrap;html=1;" vertex="1" parent="1">
          <mxGeometry x="1100" y="483" width="166.5" height="80" as="geometry" />
        </mxCell>
        <mxCell id="fUnqBwJ3Z1L05RPoQU2X-9" value="&lt;font style=&quot;font-size: 24px;&quot;&gt;Change name&amp;nbsp;&lt;/font&gt;" style="ellipse;whiteSpace=wrap;html=1;" vertex="1" parent="1">
          <mxGeometry x="487.5" y="685" width="150" height="70" as="geometry" />
        </mxCell>
        <mxCell id="fUnqBwJ3Z1L05RPoQU2X-10" value="&lt;font style=&quot;font-size: 24px;&quot;&gt;Change Password&lt;/font&gt;" style="ellipse;whiteSpace=wrap;html=1;" vertex="1" parent="1">
          <mxGeometry x="471" y="766" width="160" height="90" as="geometry" />
        </mxCell>
        <mxCell id="fUnqBwJ3Z1L05RPoQU2X-12" value="&lt;font style=&quot;font-size: 24px;&quot;&gt;Search Tutor&lt;/font&gt;" style="ellipse;whiteSpace=wrap;html=1;" vertex="1" parent="1">
          <mxGeometry x="502.5" y="260" width="147.5" height="70" as="geometry" />
        </mxCell>
        <mxCell id="fUnqBwJ3Z1L05RPoQU2X-13" value="&lt;font style=&quot;font-size: 24px;&quot;&gt;Filter Tutor&lt;/font&gt;" style="ellipse;whiteSpace=wrap;html=1;" vertex="1" parent="1">
          <mxGeometry x="502.5" y="360" width="130" height="60" as="geometry" />
        </mxCell>
        <mxCell id="fUnqBwJ3Z1L05RPoQU2X-14" value="&lt;font style=&quot;font-size: 24px;&quot;&gt;View tutor profile&lt;/font&gt;" style="ellipse;whiteSpace=wrap;html=1;" vertex="1" parent="1">
          <mxGeometry x="502.5" y="461" width="145" height="80" as="geometry" />
        </mxCell>
        <mxCell id="fUnqBwJ3Z1L05RPoQU2X-15" value="&lt;font style=&quot;font-size: 24px;&quot;&gt;Book Tutor&amp;nbsp;&lt;/font&gt;" style="ellipse;whiteSpace=wrap;html=1;" vertex="1" parent="1">
          <mxGeometry x="487.5" y="160" width="160" height="77" as="geometry" />
        </mxCell>
        <mxCell id="fUnqBwJ3Z1L05RPoQU2X-16" value="&lt;font style=&quot;font-size: 24px;&quot;&gt;Cancel Booking&amp;nbsp;&lt;/font&gt;" style="ellipse;whiteSpace=wrap;html=1;" vertex="1" parent="1">
          <mxGeometry x="487.5" y="570" width="170" height="90" as="geometry" />
        </mxCell>
        <mxCell id="fUnqBwJ3Z1L05RPoQU2X-18" value="&lt;font style=&quot;font-size: 24px;&quot;&gt;Edit Availability&lt;/font&gt;" style="ellipse;whiteSpace=wrap;html=1;" vertex="1" parent="1">
          <mxGeometry x="1082" y="630" width="149" height="78" as="geometry" />
        </mxCell>
        <mxCell id="fUnqBwJ3Z1L05RPoQU2X-19" value="&lt;font style=&quot;font-size: 24px;&quot;&gt;Add time slots&lt;/font&gt;" style="ellipse;whiteSpace=wrap;html=1;" vertex="1" parent="1">
          <mxGeometry x="1084.5" y="730" width="150" height="70" as="geometry" />
        </mxCell>
        <mxCell id="fUnqBwJ3Z1L05RPoQU2X-21" value="&lt;font style=&quot;font-size: 24px;&quot;&gt;Send message to tutor&amp;nbsp;&lt;/font&gt;" style="ellipse;whiteSpace=wrap;html=1;" vertex="1" parent="1">
          <mxGeometry x="482.5" y="872" width="177.5" height="98" as="geometry" />
        </mxCell>
        <mxCell id="fUnqBwJ3Z1L05RPoQU2X-22" value="&lt;font style=&quot;font-size: 24px;&quot;&gt;Send message to student/parent&amp;nbsp;&lt;/font&gt;" style="ellipse;whiteSpace=wrap;html=1;" vertex="1" parent="1">
          <mxGeometry x="1015.5" y="1160" width="220" height="100" as="geometry" />
        </mxCell>
        <mxCell id="fUnqBwJ3Z1L05RPoQU2X-23" value="&lt;font style=&quot;font-size: 24px;&quot;&gt;View progress reports&amp;nbsp;&lt;/font&gt;" style="ellipse;whiteSpace=wrap;html=1;" vertex="1" parent="1">
          <mxGeometry x="470" y="1160" width="200" height="70" as="geometry" />
        </mxCell>
        <mxCell id="fUnqBwJ3Z1L05RPoQU2X-24" value="&lt;font style=&quot;font-size: 24px;&quot;&gt;View past feedback for tutor&lt;/font&gt;" style="ellipse;whiteSpace=wrap;html=1;" vertex="1" parent="1">
          <mxGeometry x="472.5" y="1290" width="237.5" height="90" as="geometry" />
        </mxCell>
        <mxCell id="fUnqBwJ3Z1L05RPoQU2X-25" value="&lt;font style=&quot;font-size: 24px;&quot;&gt;Provide feedback for tutor&lt;/font&gt;" style="ellipse;whiteSpace=wrap;html=1;" vertex="1" parent="1">
          <mxGeometry x="472.5" y="1010" width="177.5" height="90" as="geometry" />
        </mxCell>
        <mxCell id="fUnqBwJ3Z1L05RPoQU2X-26" value="&lt;font style=&quot;font-size: 24px;&quot;&gt;Generate progress report&lt;/font&gt;" style="ellipse;whiteSpace=wrap;html=1;" vertex="1" parent="1">
          <mxGeometry x="1010" y="920" width="231" height="100" as="geometry" />
        </mxCell>
        <mxCell id="fUnqBwJ3Z1L05RPoQU2X-27" value="&lt;font style=&quot;font-size: 24px;&quot;&gt;Resolve reports&lt;/font&gt;" style="ellipse;whiteSpace=wrap;html=1;" vertex="1" parent="1">
          <mxGeometry x="1020" y="1050" width="200" height="90" as="geometry" />
        </mxCell>
        <mxCell id="fUnqBwJ3Z1L05RPoQU2X-47" value="" style="endArrow=none;html=1;rounded=0;exitX=1;exitY=0.3333333333333333;exitDx=0;exitDy=0;exitPerimeter=0;entryX=0;entryY=0.5;entryDx=0;entryDy=0;" edge="1" parent="1" source="Iel69sSdWUFtCfobF7gG-2" target="Iel69sSdWUFtCfobF7gG-12">
          <mxGeometry width="50" height="50" relative="1" as="geometry">
            <mxPoint x="830" y="420" as="sourcePoint" />
            <mxPoint x="880" y="370" as="targetPoint" />
          </mxGeometry>
        </mxCell>
        <mxCell id="fUnqBwJ3Z1L05RPoQU2X-48" value="" style="endArrow=none;html=1;rounded=0;entryX=0;entryY=0.5;entryDx=0;entryDy=0;exitX=0.5;exitY=0;exitDx=0;exitDy=0;exitPerimeter=0;" edge="1" parent="1" source="Iel69sSdWUFtCfobF7gG-2">
          <mxGeometry width="50" height="50" relative="1" as="geometry">
            <mxPoint x="280" y="258" as="sourcePoint" />
            <mxPoint x="505" y="98" as="targetPoint" />
          </mxGeometry>
        </mxCell>
        <mxCell id="fUnqBwJ3Z1L05RPoQU2X-49" value="" style="endArrow=none;html=1;rounded=0;entryX=0;entryY=0.5;entryDx=0;entryDy=0;exitX=1;exitY=0.3333333333333333;exitDx=0;exitDy=0;exitPerimeter=0;" edge="1" parent="1" source="Iel69sSdWUFtCfobF7gG-2">
          <mxGeometry width="50" height="50" relative="1" as="geometry">
            <mxPoint x="285" y="255" as="sourcePoint" />
            <mxPoint x="487.4999999999991" y="203.5" as="targetPoint" />
          </mxGeometry>
        </mxCell>
        <mxCell id="fUnqBwJ3Z1L05RPoQU2X-50" value="" style="endArrow=none;html=1;rounded=0;entryX=0;entryY=0.5;entryDx=0;entryDy=0;exitX=0.75;exitY=0.1;exitDx=0;exitDy=0;exitPerimeter=0;" edge="1" parent="1" source="Iel69sSdWUFtCfobF7gG-2" target="fUnqBwJ3Z1L05RPoQU2X-12">
          <mxGeometry width="50" height="50" relative="1" as="geometry">
            <mxPoint x="280" y="260" as="sourcePoint" />
            <mxPoint x="492.4999999999991" y="249.25" as="targetPoint" />
          </mxGeometry>
        </mxCell>
        <mxCell id="fUnqBwJ3Z1L05RPoQU2X-51" value="" style="endArrow=none;html=1;rounded=0;entryX=0;entryY=0;entryDx=0;entryDy=0;exitX=0.5;exitY=0.5;exitDx=0;exitDy=0;exitPerimeter=0;" edge="1" parent="1" source="Iel69sSdWUFtCfobF7gG-2" target="fUnqBwJ3Z1L05RPoQU2X-13">
          <mxGeometry width="50" height="50" relative="1" as="geometry">
            <mxPoint x="290" y="270" as="sourcePoint" />
            <mxPoint x="513" y="310" as="targetPoint" />
          </mxGeometry>
        </mxCell>
        <mxCell id="fUnqBwJ3Z1L05RPoQU2X-53" value="" style="endArrow=none;html=1;rounded=0;entryX=0;entryY=0.5;entryDx=0;entryDy=0;exitX=0.5;exitY=0.5;exitDx=0;exitDy=0;exitPerimeter=0;" edge="1" parent="1" source="Iel69sSdWUFtCfobF7gG-2" target="fUnqBwJ3Z1L05RPoQU2X-14">
          <mxGeometry width="50" height="50" relative="1" as="geometry">
            <mxPoint x="238.03999999999996" y="283.96000000000004" as="sourcePoint" />
            <mxPoint x="505" y="384" as="targetPoint" />
          </mxGeometry>
        </mxCell>
        <mxCell id="fUnqBwJ3Z1L05RPoQU2X-54" value="" style="endArrow=none;html=1;rounded=0;entryX=0;entryY=0;entryDx=0;entryDy=0;exitX=0.5;exitY=0.5;exitDx=0;exitDy=0;exitPerimeter=0;" edge="1" parent="1" source="Iel69sSdWUFtCfobF7gG-2" target="fUnqBwJ3Z1L05RPoQU2X-16">
          <mxGeometry width="50" height="50" relative="1" as="geometry">
            <mxPoint x="248.03999999999996" y="327.96000000000004" as="sourcePoint" />
            <mxPoint x="513" y="533" as="targetPoint" />
          </mxGeometry>
        </mxCell>
        <mxCell id="fUnqBwJ3Z1L05RPoQU2X-55" value="" style="endArrow=none;html=1;rounded=0;entryX=0;entryY=0.5;entryDx=0;entryDy=0;exitX=0.75;exitY=0.1;exitDx=0;exitDy=0;exitPerimeter=0;" edge="1" parent="1" source="Iel69sSdWUFtCfobF7gG-2" target="fUnqBwJ3Z1L05RPoQU2X-16">
          <mxGeometry width="50" height="50" relative="1" as="geometry">
            <mxPoint x="237" y="350" as="sourcePoint" />
            <mxPoint x="469" y="603" as="targetPoint" />
          </mxGeometry>
        </mxCell>
        <mxCell id="fUnqBwJ3Z1L05RPoQU2X-56" value="" style="endArrow=none;html=1;rounded=0;entryX=0.047;entryY=0.278;entryDx=0;entryDy=0;exitX=0.539;exitY=0.734;exitDx=0;exitDy=0;exitPerimeter=0;entryPerimeter=0;" edge="1" parent="1" source="Iel69sSdWUFtCfobF7gG-2" target="fUnqBwJ3Z1L05RPoQU2X-9">
          <mxGeometry width="50" height="50" relative="1" as="geometry">
            <mxPoint x="290" y="379" as="sourcePoint" />
            <mxPoint x="498" y="664" as="targetPoint" />
          </mxGeometry>
        </mxCell>
        <mxCell id="fUnqBwJ3Z1L05RPoQU2X-57" value="" style="endArrow=none;html=1;rounded=0;exitX=0.5;exitY=0.5;exitDx=0;exitDy=0;exitPerimeter=0;" edge="1" parent="1" source="Iel69sSdWUFtCfobF7gG-2">
          <mxGeometry width="50" height="50" relative="1" as="geometry">
            <mxPoint x="184" y="333" as="sourcePoint" />
            <mxPoint x="490" y="780" as="targetPoint" />
          </mxGeometry>
        </mxCell>
        <mxCell id="fUnqBwJ3Z1L05RPoQU2X-61" value="&lt;font style=&quot;font-size: 24px;&quot;&gt;Logout&lt;/font&gt;" style="ellipse;whiteSpace=wrap;html=1;" vertex="1" parent="1">
          <mxGeometry x="505" y="-203" width="135" height="66" as="geometry" />
        </mxCell>
        <mxCell id="fUnqBwJ3Z1L05RPoQU2X-62" value="" style="endArrow=none;html=1;rounded=0;entryX=0.069;entryY=0.716;entryDx=0;entryDy=0;exitX=0.5;exitY=0;exitDx=0;exitDy=0;exitPerimeter=0;entryPerimeter=0;" edge="1" parent="1" source="Iel69sSdWUFtCfobF7gG-2" target="fUnqBwJ3Z1L05RPoQU2X-61">
          <mxGeometry width="50" height="50" relative="1" as="geometry">
            <mxPoint x="204" y="397" as="sourcePoint" />
            <mxPoint x="514" y="33" as="targetPoint" />
          </mxGeometry>
        </mxCell>
        <mxCell id="fUnqBwJ3Z1L05RPoQU2X-66" value="" style="endArrow=none;html=1;rounded=0;exitX=0.5;exitY=0;exitDx=0;exitDy=0;exitPerimeter=0;entryX=0.965;entryY=0.686;entryDx=0;entryDy=0;entryPerimeter=0;" edge="1" parent="1" source="fUnqBwJ3Z1L05RPoQU2X-1" target="fUnqBwJ3Z1L05RPoQU2X-4">
          <mxGeometry width="50" height="50" relative="1" as="geometry">
            <mxPoint x="960" y="360" as="sourcePoint" />
            <mxPoint x="1010" y="310" as="targetPoint" />
          </mxGeometry>
        </mxCell>
        <mxCell id="fUnqBwJ3Z1L05RPoQU2X-67" value="" style="endArrow=none;html=1;rounded=0;entryX=1;entryY=0.5;entryDx=0;entryDy=0;exitX=0.25;exitY=0.1;exitDx=0;exitDy=0;exitPerimeter=0;" edge="1" parent="1" source="fUnqBwJ3Z1L05RPoQU2X-1" target="fUnqBwJ3Z1L05RPoQU2X-5">
          <mxGeometry width="50" height="50" relative="1" as="geometry">
            <mxPoint x="1438" y="463" as="sourcePoint" />
            <mxPoint x="1236" y="111" as="targetPoint" />
            <Array as="points" />
          </mxGeometry>
        </mxCell>
        <mxCell id="fUnqBwJ3Z1L05RPoQU2X-68" value="" style="endArrow=none;html=1;rounded=0;entryX=1;entryY=1;entryDx=0;entryDy=0;exitX=0.25;exitY=0.1;exitDx=0;exitDy=0;exitPerimeter=0;" edge="1" parent="1" source="fUnqBwJ3Z1L05RPoQU2X-1" target="fUnqBwJ3Z1L05RPoQU2X-6">
          <mxGeometry width="50" height="50" relative="1" as="geometry">
            <mxPoint x="1399" y="390" as="sourcePoint" />
            <mxPoint x="1218" y="119" as="targetPoint" />
            <Array as="points" />
          </mxGeometry>
        </mxCell>
        <mxCell id="fUnqBwJ3Z1L05RPoQU2X-69" value="" style="endArrow=none;html=1;rounded=0;entryX=1;entryY=1;entryDx=0;entryDy=0;exitX=0.25;exitY=0.1;exitDx=0;exitDy=0;exitPerimeter=0;" edge="1" parent="1" target="Iel69sSdWUFtCfobF7gG-21">
          <mxGeometry width="50" height="50" relative="1" as="geometry">
            <mxPoint x="1404.5" y="361" as="sourcePoint" />
            <mxPoint x="1201.104276444711" y="312.6229954165419" as="targetPoint" />
            <Array as="points" />
          </mxGeometry>
        </mxCell>
        <mxCell id="fUnqBwJ3Z1L05RPoQU2X-70" value="" style="endArrow=none;html=1;rounded=0;entryX=1;entryY=0.5;entryDx=0;entryDy=0;" edge="1" parent="1" target="fUnqBwJ3Z1L05RPoQU2X-7">
          <mxGeometry width="50" height="50" relative="1" as="geometry">
            <mxPoint x="1400" y="360" as="sourcePoint" />
            <mxPoint x="1212" y="323" as="targetPoint" />
            <Array as="points" />
          </mxGeometry>
        </mxCell>
        <mxCell id="fUnqBwJ3Z1L05RPoQU2X-72" value="" style="endArrow=none;html=1;rounded=0;entryX=1;entryY=0;entryDx=0;entryDy=0;exitX=0.448;exitY=0.342;exitDx=0;exitDy=0;exitPerimeter=0;" edge="1" parent="1" source="fUnqBwJ3Z1L05RPoQU2X-1" target="fUnqBwJ3Z1L05RPoQU2X-8">
          <mxGeometry width="50" height="50" relative="1" as="geometry">
            <mxPoint x="1420" y="380" as="sourcePoint" />
            <mxPoint x="1230" y="429" as="targetPoint" />
            <Array as="points" />
          </mxGeometry>
        </mxCell>
        <mxCell id="fUnqBwJ3Z1L05RPoQU2X-73" value="" style="endArrow=none;html=1;rounded=0;entryX=1;entryY=0;entryDx=0;entryDy=0;" edge="1" parent="1" target="fUnqBwJ3Z1L05RPoQU2X-18">
          <mxGeometry width="50" height="50" relative="1" as="geometry">
            <mxPoint x="1420" y="390" as="sourcePoint" />
            <mxPoint x="1220" y="512" as="targetPoint" />
            <Array as="points" />
          </mxGeometry>
        </mxCell>
        <mxCell id="fUnqBwJ3Z1L05RPoQU2X-78" value="" style="endArrow=none;html=1;rounded=0;entryX=0;entryY=0.5;entryDx=0;entryDy=0;" edge="1" parent="1" target="fUnqBwJ3Z1L05RPoQU2X-25">
          <mxGeometry width="50" height="50" relative="1" as="geometry">
            <mxPoint x="240" y="628" as="sourcePoint" />
            <mxPoint x="516" y="955" as="targetPoint" />
            <Array as="points">
              <mxPoint x="200" y="540" />
              <mxPoint x="240" y="628" />
            </Array>
          </mxGeometry>
        </mxCell>
        <mxCell id="fUnqBwJ3Z1L05RPoQU2X-79" value="" style="endArrow=none;html=1;rounded=0;entryX=0;entryY=0.5;entryDx=0;entryDy=0;" edge="1" parent="1">
          <mxGeometry width="50" height="50" relative="1" as="geometry">
            <mxPoint x="250" y="748" as="sourcePoint" />
            <mxPoint x="483" y="1175" as="targetPoint" />
            <Array as="points">
              <mxPoint x="200" y="540" />
              <mxPoint x="250" y="748" />
            </Array>
          </mxGeometry>
        </mxCell>
        <mxCell id="fUnqBwJ3Z1L05RPoQU2X-80" value="" style="endArrow=none;html=1;rounded=0;entryX=0;entryY=0.5;entryDx=0;entryDy=0;" edge="1" parent="1">
          <mxGeometry width="50" height="50" relative="1" as="geometry">
            <mxPoint x="260" y="880" as="sourcePoint" />
            <mxPoint x="493" y="1307" as="targetPoint" />
            <Array as="points">
              <mxPoint x="200" y="540" />
              <mxPoint x="260" y="880" />
            </Array>
          </mxGeometry>
        </mxCell>
        <mxCell id="fUnqBwJ3Z1L05RPoQU2X-81" value="" style="endArrow=none;html=1;rounded=0;entryX=0;entryY=0.5;entryDx=0;entryDy=0;exitX=0.5;exitY=0.5;exitDx=0;exitDy=0;exitPerimeter=0;" edge="1" parent="1" target="fUnqBwJ3Z1L05RPoQU2X-21">
          <mxGeometry width="50" height="50" relative="1" as="geometry">
            <mxPoint x="205" y="554" as="sourcePoint" />
            <mxPoint x="519.5999999999999" y="831.81" as="targetPoint" />
          </mxGeometry>
        </mxCell>
        <mxCell id="fUnqBwJ3Z1L05RPoQU2X-83" value="" style="endArrow=none;html=1;rounded=0;entryX=1;entryY=0;entryDx=0;entryDy=0;exitX=0.5;exitY=0.5;exitDx=0;exitDy=0;exitPerimeter=0;" edge="1" parent="1" source="fUnqBwJ3Z1L05RPoQU2X-1" target="fUnqBwJ3Z1L05RPoQU2X-19">
          <mxGeometry width="50" height="50" relative="1" as="geometry">
            <mxPoint x="1430" y="400" as="sourcePoint" />
            <mxPoint x="1223" y="621" as="targetPoint" />
            <Array as="points" />
          </mxGeometry>
        </mxCell>
        <mxCell id="fUnqBwJ3Z1L05RPoQU2X-85" value="" style="endArrow=none;html=1;rounded=0;entryX=1;entryY=0.5;entryDx=0;entryDy=0;" edge="1" parent="1" target="Iel69sSdWUFtCfobF7gG-23">
          <mxGeometry width="50" height="50" relative="1" as="geometry">
            <mxPoint x="1430" y="755" as="sourcePoint" />
            <mxPoint x="1233" y="760" as="targetPoint" />
            <Array as="points" />
          </mxGeometry>
        </mxCell>
        <mxCell id="fUnqBwJ3Z1L05RPoQU2X-86" value="" style="endArrow=none;html=1;rounded=0;entryX=0.972;entryY=0.761;entryDx=0;entryDy=0;exitX=0.25;exitY=0.1;exitDx=0;exitDy=0;exitPerimeter=0;entryPerimeter=0;" edge="1" parent="1" source="fUnqBwJ3Z1L05RPoQU2X-1" target="Iel69sSdWUFtCfobF7gG-8">
          <mxGeometry width="50" height="50" relative="1" as="geometry">
            <mxPoint x="1416" y="422" as="sourcePoint" />
            <mxPoint x="1216" y="230" as="targetPoint" />
            <Array as="points" />
          </mxGeometry>
        </mxCell>
        <mxCell id="fUnqBwJ3Z1L05RPoQU2X-87" value="" style="endArrow=none;html=1;rounded=0;entryX=0.982;entryY=0.747;entryDx=0;entryDy=0;exitX=0.25;exitY=0.1;exitDx=0;exitDy=0;exitPerimeter=0;entryPerimeter=0;" edge="1" parent="1" target="Iel69sSdWUFtCfobF7gG-12">
          <mxGeometry width="50" height="50" relative="1" as="geometry">
            <mxPoint x="1405.5" y="359.00000000000045" as="sourcePoint" />
            <mxPoint x="646.5685424949111" y="-13.715728752544237" as="targetPoint" />
            <Array as="points" />
          </mxGeometry>
        </mxCell>
        <mxCell id="fUnqBwJ3Z1L05RPoQU2X-88" value="" style="endArrow=none;html=1;rounded=0;entryX=1;entryY=0.5;entryDx=0;entryDy=0;" edge="1" parent="1" target="fUnqBwJ3Z1L05RPoQU2X-61">
          <mxGeometry width="50" height="50" relative="1" as="geometry">
            <mxPoint x="1400" y="360" as="sourcePoint" />
            <mxPoint x="631" y="3" as="targetPoint" />
            <Array as="points" />
          </mxGeometry>
        </mxCell>
        <mxCell id="fUnqBwJ3Z1L05RPoQU2X-96" value="&lt;font style=&quot;font-size: 24px;&quot;&gt;&amp;lt;&amp;lt;include&amp;gt;&amp;gt;&lt;/font&gt;" style="html=1;verticalAlign=bottom;labelBackgroundColor=none;endArrow=open;endFill=0;dashed=1;rounded=0;exitX=1;exitY=0.5;exitDx=0;exitDy=0;entryX=1;entryY=0;entryDx=0;entryDy=0;" edge="1" parent="1" source="fUnqBwJ3Z1L05RPoQU2X-15" target="fUnqBwJ3Z1L05RPoQU2X-16">
          <mxGeometry width="160" relative="1" as="geometry">
            <mxPoint x="740" y="390" as="sourcePoint" />
            <mxPoint x="900" y="390" as="targetPoint" />
            <Array as="points">
              <mxPoint x="750" y="400" />
            </Array>
          </mxGeometry>
        </mxCell>
        <mxCell id="8h4H5gESicJA4b5uFjsQ-4" value="&lt;font style=&quot;font-size: 24px;&quot;&gt;Add packages&amp;nbsp;&lt;/font&gt;" style="ellipse;whiteSpace=wrap;html=1;" vertex="1" parent="1">
          <mxGeometry x="1090" y="-210" width="180.5" height="70" as="geometry" />
        </mxCell>
        <mxCell id="8h4H5gESicJA4b5uFjsQ-5" value="" style="endArrow=none;html=1;rounded=0;entryX=1;entryY=0.5;entryDx=0;entryDy=0;" edge="1" parent="1" source="fUnqBwJ3Z1L05RPoQU2X-1" target="8h4H5gESicJA4b5uFjsQ-4">
          <mxGeometry width="50" height="50" relative="1" as="geometry">
            <mxPoint x="1080" y="70" as="sourcePoint" />
            <mxPoint x="1130" y="20" as="targetPoint" />
          </mxGeometry>
        </mxCell>
        <mxCell id="8h4H5gESicJA4b5uFjsQ-6" value="" style="endArrow=none;html=1;rounded=0;exitX=1;exitY=0.5;exitDx=0;exitDy=0;entryX=0.607;entryY=0.347;entryDx=0;entryDy=0;entryPerimeter=0;" edge="1" parent="1" source="fUnqBwJ3Z1L05RPoQU2X-26" target="fUnqBwJ3Z1L05RPoQU2X-1">
          <mxGeometry width="50" height="50" relative="1" as="geometry">
            <mxPoint x="880" y="690" as="sourcePoint" />
            <mxPoint x="930" y="640" as="targetPoint" />
          </mxGeometry>
        </mxCell>
        <mxCell id="8h4H5gESicJA4b5uFjsQ-7" value="&lt;font style=&quot;font-size: 24px;&quot;&gt;Archive chat&lt;/font&gt;" style="ellipse;whiteSpace=wrap;html=1;" vertex="1" parent="1">
          <mxGeometry x="760" y="420" width="180" height="90" as="geometry" />
        </mxCell>
        <mxCell id="8h4H5gESicJA4b5uFjsQ-8" value="&lt;font style=&quot;font-size: 24px;&quot;&gt;Unarchive chat&lt;/font&gt;" style="ellipse;whiteSpace=wrap;html=1;" vertex="1" parent="1">
          <mxGeometry x="760" y="530" width="180" height="90" as="geometry" />
        </mxCell>
        <mxCell id="8h4H5gESicJA4b5uFjsQ-9" value="&lt;font style=&quot;font-size: 24px;&quot;&gt;Pin chat&lt;/font&gt;" style="ellipse;whiteSpace=wrap;html=1;" vertex="1" parent="1">
          <mxGeometry x="730" y="708" width="180" height="90" as="geometry" />
        </mxCell>
        <mxCell id="8h4H5gESicJA4b5uFjsQ-10" value="&lt;font style=&quot;font-size: 24px;&quot;&gt;Unpin chat&lt;/font&gt;" style="ellipse;whiteSpace=wrap;html=1;" vertex="1" parent="1">
          <mxGeometry x="720" y="869" width="180" height="90" as="geometry" />
        </mxCell>
        <mxCell id="8h4H5gESicJA4b5uFjsQ-11" value="" style="endArrow=none;html=1;rounded=0;exitX=0.75;exitY=0.1;exitDx=0;exitDy=0;exitPerimeter=0;entryX=0;entryY=0;entryDx=0;entryDy=0;" edge="1" parent="1" source="Iel69sSdWUFtCfobF7gG-2" target="8h4H5gESicJA4b5uFjsQ-7">
          <mxGeometry width="50" height="50" relative="1" as="geometry">
            <mxPoint x="860" y="480" as="sourcePoint" />
            <mxPoint x="910" y="430" as="targetPoint" />
          </mxGeometry>
        </mxCell>
        <mxCell id="8h4H5gESicJA4b5uFjsQ-12" value="" style="endArrow=none;html=1;rounded=0;exitX=0.5;exitY=0.5;exitDx=0;exitDy=0;exitPerimeter=0;" edge="1" parent="1" source="Iel69sSdWUFtCfobF7gG-2" target="8h4H5gESicJA4b5uFjsQ-8">
          <mxGeometry width="50" height="50" relative="1" as="geometry">
            <mxPoint x="860" y="480" as="sourcePoint" />
            <mxPoint x="910" y="430" as="targetPoint" />
          </mxGeometry>
        </mxCell>
        <mxCell id="8h4H5gESicJA4b5uFjsQ-16" value="" style="endArrow=none;html=1;rounded=0;exitX=0.5;exitY=0.5;exitDx=0;exitDy=0;exitPerimeter=0;" edge="1" parent="1" source="Iel69sSdWUFtCfobF7gG-2" target="8h4H5gESicJA4b5uFjsQ-9">
          <mxGeometry width="50" height="50" relative="1" as="geometry">
            <mxPoint x="860" y="660" as="sourcePoint" />
            <mxPoint x="910" y="610" as="targetPoint" />
          </mxGeometry>
        </mxCell>
        <mxCell id="8h4H5gESicJA4b5uFjsQ-17" value="" style="endArrow=none;html=1;rounded=0;entryX=0;entryY=0;entryDx=0;entryDy=0;exitX=0.5;exitY=0.5;exitDx=0;exitDy=0;exitPerimeter=0;" edge="1" parent="1" source="Iel69sSdWUFtCfobF7gG-2" target="8h4H5gESicJA4b5uFjsQ-10">
          <mxGeometry width="50" height="50" relative="1" as="geometry">
            <mxPoint x="890" y="760" as="sourcePoint" />
            <mxPoint x="940" y="710" as="targetPoint" />
          </mxGeometry>
        </mxCell>
        <mxCell id="8h4H5gESicJA4b5uFjsQ-20" value="" style="endArrow=none;html=1;rounded=0;entryX=0.25;entryY=0.1;entryDx=0;entryDy=0;entryPerimeter=0;exitX=1;exitY=0.5;exitDx=0;exitDy=0;" edge="1" parent="1" source="8h4H5gESicJA4b5uFjsQ-7" target="fUnqBwJ3Z1L05RPoQU2X-1">
          <mxGeometry width="50" height="50" relative="1" as="geometry">
            <mxPoint x="890" y="760" as="sourcePoint" />
            <mxPoint x="940" y="710" as="targetPoint" />
          </mxGeometry>
        </mxCell>
        <mxCell id="8h4H5gESicJA4b5uFjsQ-21" value="" style="endArrow=none;html=1;rounded=0;exitX=1;exitY=0;exitDx=0;exitDy=0;" edge="1" parent="1" source="8h4H5gESicJA4b5uFjsQ-8">
          <mxGeometry width="50" height="50" relative="1" as="geometry">
            <mxPoint x="920" y="549" as="sourcePoint" />
            <mxPoint x="1410" y="370" as="targetPoint" />
          </mxGeometry>
        </mxCell>
        <mxCell id="8h4H5gESicJA4b5uFjsQ-22" value="" style="endArrow=none;html=1;rounded=0;entryX=0.5;entryY=0.5;entryDx=0;entryDy=0;entryPerimeter=0;exitX=1;exitY=0;exitDx=0;exitDy=0;" edge="1" parent="1" source="fUnqBwJ3Z1L05RPoQU2X-21" target="fUnqBwJ3Z1L05RPoQU2X-3">
          <mxGeometry width="50" height="50" relative="1" as="geometry">
            <mxPoint x="860" y="810" as="sourcePoint" />
            <mxPoint x="910" y="760" as="targetPoint" />
          </mxGeometry>
        </mxCell>
        <mxCell id="8h4H5gESicJA4b5uFjsQ-23" value="" style="endArrow=none;html=1;rounded=0;entryX=0.5;entryY=0.5;entryDx=0;entryDy=0;entryPerimeter=0;exitX=1;exitY=0;exitDx=0;exitDy=0;" edge="1" parent="1" source="fUnqBwJ3Z1L05RPoQU2X-22" target="fUnqBwJ3Z1L05RPoQU2X-3">
          <mxGeometry width="50" height="50" relative="1" as="geometry">
            <mxPoint x="860" y="990" as="sourcePoint" />
            <mxPoint x="910" y="940" as="targetPoint" />
          </mxGeometry>
        </mxCell>
        <mxCell id="8h4H5gESicJA4b5uFjsQ-24" value="&lt;font style=&quot;font-size: 24px;&quot;&gt;Block user&amp;nbsp;&lt;/font&gt;" style="ellipse;whiteSpace=wrap;html=1;" vertex="1" parent="1">
          <mxGeometry x="1052.5" y="1280" width="180" height="90" as="geometry" />
        </mxCell>
        <mxCell id="8h4H5gESicJA4b5uFjsQ-25" value="&lt;font style=&quot;font-size: 24px;&quot;&gt;Unblock user&amp;nbsp;&lt;/font&gt;" style="ellipse;whiteSpace=wrap;html=1;" vertex="1" parent="1">
          <mxGeometry x="1052.5" y="1433" width="180" height="90" as="geometry" />
        </mxCell>
        <mxCell id="8h4H5gESicJA4b5uFjsQ-26" value="" style="endArrow=none;html=1;rounded=0;exitX=0.981;exitY=0.328;exitDx=0;exitDy=0;entryX=0.5;entryY=0.5;entryDx=0;entryDy=0;entryPerimeter=0;exitPerimeter=0;" edge="1" parent="1" source="8h4H5gESicJA4b5uFjsQ-24" target="fUnqBwJ3Z1L05RPoQU2X-3">
          <mxGeometry width="50" height="50" relative="1" as="geometry">
            <mxPoint x="1248.1396103067896" y="1293.1801948466054" as="sourcePoint" />
            <mxPoint x="1435.14495718634" y="800" as="targetPoint" />
          </mxGeometry>
        </mxCell>
        <mxCell id="8h4H5gESicJA4b5uFjsQ-31" value="" style="endArrow=none;html=1;rounded=0;entryX=0.5;entryY=0.5;entryDx=0;entryDy=0;entryPerimeter=0;exitX=1;exitY=0;exitDx=0;exitDy=0;" edge="1" parent="1" source="fUnqBwJ3Z1L05RPoQU2X-27" target="fUnqBwJ3Z1L05RPoQU2X-3">
          <mxGeometry width="50" height="50" relative="1" as="geometry">
            <mxPoint x="910" y="1000" as="sourcePoint" />
            <mxPoint x="960" y="950" as="targetPoint" />
          </mxGeometry>
        </mxCell>
        <mxCell id="8h4H5gESicJA4b5uFjsQ-32" value="" style="endArrow=none;html=1;rounded=0;exitX=1;exitY=0.5;exitDx=0;exitDy=0;entryX=0.522;entryY=0.727;entryDx=0;entryDy=0;entryPerimeter=0;" edge="1" parent="1" source="8h4H5gESicJA4b5uFjsQ-25" target="fUnqBwJ3Z1L05RPoQU2X-3">
          <mxGeometry width="50" height="50" relative="1" as="geometry">
            <mxPoint x="1246.5" y="1441" as="sourcePoint" />
            <mxPoint x="1473" y="796" as="targetPoint" />
          </mxGeometry>
        </mxCell>
        <mxCell id="8h4H5gESicJA4b5uFjsQ-33" value="" style="endArrow=none;html=1;rounded=0;entryX=0.5;entryY=0.5;entryDx=0;entryDy=0;entryPerimeter=0;exitX=1;exitY=0.5;exitDx=0;exitDy=0;" edge="1" parent="1" source="fUnqBwJ3Z1L05RPoQU2X-22" target="fUnqBwJ3Z1L05RPoQU2X-1">
          <mxGeometry width="50" height="50" relative="1" as="geometry">
            <mxPoint x="970" y="1030" as="sourcePoint" />
            <mxPoint x="1020" y="980" as="targetPoint" />
          </mxGeometry>
        </mxCell>
        <mxCell id="NVkjbB_MmGuhYUuexwfn-3" value="&lt;font style=&quot;font-size: 24px;&quot;&gt;&amp;lt;&amp;lt;include&amp;gt;&amp;gt;&lt;/font&gt;" style="html=1;verticalAlign=bottom;labelBackgroundColor=none;endArrow=open;endFill=0;dashed=1;rounded=0;entryX=1;entryY=0.5;entryDx=0;entryDy=0;exitX=1;exitY=0;exitDx=0;exitDy=0;" edge="1" parent="1" source="Iel69sSdWUFtCfobF7gG-8" target="Iel69sSdWUFtCfobF7gG-12">
          <mxGeometry width="160" relative="1" as="geometry">
            <mxPoint x="620" y="50" as="sourcePoint" />
            <mxPoint x="643" y="378" as="targetPoint" />
            <Array as="points">
              <mxPoint x="750" y="70" />
            </Array>
          </mxGeometry>
        </mxCell>
        <mxCell id="NVkjbB_MmGuhYUuexwfn-4" value="&lt;span style=&quot;font-size: 24px;&quot;&gt;Report user&amp;nbsp;&lt;/span&gt;" style="ellipse;whiteSpace=wrap;html=1;" vertex="1" parent="1">
          <mxGeometry x="800" y="280" width="180" height="90" as="geometry" />
        </mxCell>
        <mxCell id="NVkjbB_MmGuhYUuexwfn-5" value="" style="endArrow=none;html=1;rounded=0;entryX=0.5;entryY=1;entryDx=0;entryDy=0;" edge="1" parent="1" source="Iel69sSdWUFtCfobF7gG-2" target="NVkjbB_MmGuhYUuexwfn-4">
          <mxGeometry width="50" height="50" relative="1" as="geometry">
            <mxPoint x="1160" y="550" as="sourcePoint" />
            <mxPoint x="1210" y="500" as="targetPoint" />
          </mxGeometry>
        </mxCell>
        <mxCell id="NVkjbB_MmGuhYUuexwfn-6" value="" style="endArrow=none;html=1;rounded=0;entryX=0.5;entryY=0;entryDx=0;entryDy=0;entryPerimeter=0;exitX=1;exitY=0.5;exitDx=0;exitDy=0;" edge="1" parent="1" source="NVkjbB_MmGuhYUuexwfn-4" target="fUnqBwJ3Z1L05RPoQU2X-1">
          <mxGeometry width="50" height="50" relative="1" as="geometry">
            <mxPoint x="1160" y="550" as="sourcePoint" />
            <mxPoint x="1210" y="500" as="targetPoint" />
          </mxGeometry>
        </mxCell>
        <mxCell id="NVkjbB_MmGuhYUuexwfn-7" value="&lt;font style=&quot;font-size: 24px;&quot;&gt;&amp;lt;&amp;lt;include&amp;gt;&amp;gt;&lt;/font&gt;" style="html=1;verticalAlign=bottom;labelBackgroundColor=none;endArrow=open;endFill=0;dashed=1;rounded=0;exitX=0.5;exitY=1;exitDx=0;exitDy=0;entryX=0;entryY=0.5;entryDx=0;entryDy=0;" edge="1" parent="1" source="NVkjbB_MmGuhYUuexwfn-4" target="fUnqBwJ3Z1L05RPoQU2X-27">
          <mxGeometry width="160" relative="1" as="geometry">
            <mxPoint x="1110" y="900" as="sourcePoint" />
            <mxPoint x="1270" y="900" as="targetPoint" />
          </mxGeometry>
        </mxCell>
        <mxCell id="NVkjbB_MmGuhYUuexwfn-9" value="&lt;font style=&quot;font-size: 24px;&quot;&gt;&amp;lt;&amp;lt;include&amp;gt;&amp;gt;&lt;/font&gt;" style="html=1;verticalAlign=bottom;labelBackgroundColor=none;endArrow=open;endFill=0;dashed=1;rounded=0;exitX=0.5;exitY=1;exitDx=0;exitDy=0;entryX=0;entryY=0;entryDx=0;entryDy=0;" edge="1" parent="1" source="8h4H5gESicJA4b5uFjsQ-24" target="8h4H5gESicJA4b5uFjsQ-25">
          <mxGeometry width="160" relative="1" as="geometry">
            <mxPoint x="1280" y="890" as="sourcePoint" />
            <mxPoint x="1440" y="890" as="targetPoint" />
          </mxGeometry>
        </mxCell>
        <mxCell id="NVkjbB_MmGuhYUuexwfn-12" value="&lt;font style=&quot;font-size: 24px;&quot;&gt;&amp;lt;&amp;lt;extend&amp;gt;&amp;gt;&lt;/font&gt;" style="html=1;verticalAlign=bottom;labelBackgroundColor=none;endArrow=open;endFill=0;dashed=1;rounded=0;exitX=1;exitY=1;exitDx=0;exitDy=0;entryX=1;entryY=0;entryDx=0;entryDy=0;" edge="1" parent="1" source="fUnqBwJ3Z1L05RPoQU2X-25" target="fUnqBwJ3Z1L05RPoQU2X-24">
          <mxGeometry width="160" relative="1" as="geometry">
            <mxPoint x="1280" y="880" as="sourcePoint" />
            <mxPoint x="1440" y="880" as="targetPoint" />
            <Array as="points">
              <mxPoint x="730" y="1170" />
            </Array>
          </mxGeometry>
        </mxCell>
        <mxCell id="NVkjbB_MmGuhYUuexwfn-13" value="&lt;font style=&quot;font-size: 24px;&quot;&gt;&amp;lt;&amp;lt;extend&amp;gt;&amp;gt;&lt;/font&gt;" style="html=1;verticalAlign=bottom;labelBackgroundColor=none;endArrow=open;endFill=0;dashed=1;rounded=0;exitX=0.5;exitY=1;exitDx=0;exitDy=0;entryX=0.5;entryY=0;entryDx=0;entryDy=0;" edge="1" parent="1" source="8h4H5gESicJA4b5uFjsQ-9" target="8h4H5gESicJA4b5uFjsQ-10">
          <mxGeometry width="160" relative="1" as="geometry">
            <mxPoint x="1280" y="670" as="sourcePoint" />
            <mxPoint x="1440" y="670" as="targetPoint" />
          </mxGeometry>
        </mxCell>
        <mxCell id="NVkjbB_MmGuhYUuexwfn-14" value="&lt;font style=&quot;font-size: 24px;&quot;&gt;&amp;lt;&amp;lt;extend&amp;gt;&amp;gt;&lt;/font&gt;" style="html=1;verticalAlign=bottom;labelBackgroundColor=none;endArrow=open;endFill=0;dashed=1;rounded=0;exitX=0.372;exitY=1.017;exitDx=0;exitDy=0;entryX=0.5;entryY=0;entryDx=0;entryDy=0;exitPerimeter=0;" edge="1" parent="1" source="8h4H5gESicJA4b5uFjsQ-8">
          <mxGeometry width="160" relative="1" as="geometry">
            <mxPoint x="860" y="638" as="sourcePoint" />
            <mxPoint x="820" y="709" as="targetPoint" />
          </mxGeometry>
        </mxCell>
        <mxCell id="NVkjbB_MmGuhYUuexwfn-16" value="&lt;font style=&quot;font-size: 24px;&quot;&gt;Add Subjects&amp;nbsp;&lt;/font&gt;" style="ellipse;whiteSpace=wrap;html=1;" vertex="1" parent="1">
          <mxGeometry x="890" y="-160" width="180.5" height="70" as="geometry" />
        </mxCell>
        <mxCell id="NVkjbB_MmGuhYUuexwfn-17" value="" style="endArrow=none;html=1;rounded=0;entryX=0.5;entryY=0;entryDx=0;entryDy=0;entryPerimeter=0;" edge="1" parent="1" source="NVkjbB_MmGuhYUuexwfn-16" target="fUnqBwJ3Z1L05RPoQU2X-1">
          <mxGeometry width="50" height="50" relative="1" as="geometry">
            <mxPoint x="1000" y="380" as="sourcePoint" />
            <mxPoint x="1050" y="330" as="targetPoint" />
          </mxGeometry>
        </mxCell>
      </root>
    </mxGraphModel>
  </diagram>
</mxfile>
